<?xml version="1.0" encoding="utf-8"?>
<!-- Generator: Adobe Illustrator 15.0.0, SVG Export Plug-In . SVG Version: 6.00 Build 0)  -->
<!DOCTYPE svg PUBLIC "-//W3C//DTD SVG 1.1//EN" "http://www.w3.org/Graphics/SVG/1.1/DTD/svg11.dtd">
<svg version="1.1" id="Layer_1" xmlns="http://www.w3.org/2000/svg" xmlns:xlink="http://www.w3.org/1999/xlink" x="0px" y="0px"
	 width="13px" height="13px" viewBox="0 0 13 13" enable-background="new 0 0 13 13" xml:space="preserve">
<path fill="#D1D1D1" d="M8.871,6.25l3.288-3.288c0.137-0.137,0.137-0.358,0-0.495l-1.626-1.626c-0.137-0.137-0.358-0.137-0.495,0
	L6.75,4.129L3.462,0.841c-0.137-0.137-0.358-0.137-0.495,0L1.341,2.467c-0.137,0.137-0.137,0.358,0,0.495L4.629,6.25L1.341,9.538
	c-0.137,0.137-0.137,0.358,0,0.495l1.626,1.626c0.137,0.137,0.358,0.137,0.495,0L6.75,8.371l3.288,3.288
	c0.137,0.137,0.358,0.137,0.495,0l1.626-1.626c0.137-0.137,0.137-0.358,0-0.495L8.871,6.25z"/>
</svg>
