<?xml version="1.0" encoding="utf-8"?>
<!-- Generator: Adobe Illustrator 16.0.0, SVG Export Plug-In . SVG Version: 6.00 Build 0)  -->
<!DOCTYPE svg PUBLIC "-//W3C//DTD SVG 1.1//EN" "http://www.w3.org/Graphics/SVG/1.1/DTD/svg11.dtd">
<svg version="1.1" id="Image_1_" xmlns="http://www.w3.org/2000/svg" xmlns:xlink="http://www.w3.org/1999/xlink" x="0px" y="0px"
	 width="207px" height="106px" viewBox="0 0 207 106" enable-background="new 0 0 207 106" xml:space="preserve">
<g id="Color">
	<g>
		<rect x="70" y="12" fill="#FFDA8C" width="70" height="86"/>
	</g>
</g>
<g id="Shades">
	<g>
		<polygon fill-rule="evenodd" clip-rule="evenodd" fill="#EFC469" points="136,12 136,94 70,94 70,98 136,98 140,98 140,12 		"/>
	</g>
</g>
<g id="Transform_controls">
	<g>
		<path fill-rule="evenodd" clip-rule="evenodd" fill="#64310F" d="M148,12V0h-12v4h-27V0H97v4H70V0H58v12h4v35h-4v12h4v35h4V59h4
			V47h-4V12h4V8h27v4h12V8h27v4h4v35h-4v12h4v35h4V59h4V47h-4V12H148z M66,55h-4v-4h4V55z M66,8h-4V4h4V8z M105,8h-4V4h4V8z M144,55
			h-4v-4h4V55z M140,8V4h4v4H140z M70,102h27v-4H70V102z M109,102h27v-4h-27V102z"/>
	</g>
</g>
<g id="Transform_controls_copy">
	<g>
		<path fill="#64310F" d="M97,106h12V94H97V106z M101,98h4v4h-4V98z M58,106h12V94H58V106z M62,98h4v4h-4V98z M136,94v12h12V94H136z
			 M144,102h-4v-4h4V102z"/>
	</g>
</g>
<g id="Face">
	<g>
		<path fill-rule="evenodd" clip-rule="evenodd" fill="#64310F" d="M92.546,54.264c0.385,0.491,0.949,0.746,1.516,0.746
			c0.433,0,0.869-0.148,1.231-0.452c0.836-0.703,0.964-1.975,0.283-2.839c-1.863-2.371-4.624-3.73-7.573-3.73
			c-2.949,0-5.709,1.359-7.573,3.73c-0.68,0.864-0.553,2.136,0.284,2.839c0.836,0.703,2.066,0.572,2.747-0.294
			c1.119-1.423,2.774-2.239,4.542-2.239C89.771,52.024,91.427,52.841,92.546,54.264z M125.576,51.719
			c-1.863-2.371-4.625-3.73-7.574-3.73s-5.709,1.359-7.572,3.73c-0.68,0.864-0.553,2.136,0.283,2.839
			c0.837,0.703,2.066,0.572,2.747-0.294c1.118-1.423,2.774-2.239,4.542-2.239c1.77,0,3.425,0.816,4.544,2.239
			c0.386,0.491,0.948,0.746,1.516,0.746c0.433,0,0.868-0.148,1.231-0.452C126.129,53.854,126.256,52.583,125.576,51.719z
			 M115.988,66.896c-0.004-0.036-0.006-0.069-0.01-0.103c-0.109-1.004-0.892-1.786-1.852-1.786H91.873
			c-0.959,0-1.742,0.782-1.851,1.786c-0.004,0.032-0.007,0.066-0.01,0.103C90.01,66.94,90,66.983,90,67.028
			c0,0.012,0.003,0.022,0.003,0.034C90.001,67.111,90,67.161,90,67.211c0,4.304,5.82,7.793,12.999,7.793
			c7.18,0,13.001-3.489,13.001-7.793c0-0.05-0.002-0.1-0.003-0.148c0-0.012,0.003-0.022,0.003-0.034
			C116,66.983,115.99,66.94,115.988,66.896z"/>
	</g>
</g>
<g id="Tongue">
	<g>
		<ellipse fill="#FF4E8F" cx="103" cy="71" rx="5" ry="2"/>
	</g>
</g>
<g id="Cheeks">
	<g>
		<path fill-rule="evenodd" clip-rule="evenodd" fill="#CF6A6A" d="M126.487,63.005c-1.381,0-2.5,1.119-2.5,2.5s1.119,2.5,2.5,2.5
			c1.38,0,2.5-1.119,2.5-2.5S127.867,63.005,126.487,63.005z M79.487,63.005c-1.381,0-2.5,1.119-2.5,2.5s1.119,2.5,2.5,2.5
			c1.38,0,2.5-1.119,2.5-2.5S80.868,63.005,79.487,63.005z"/>
	</g>
</g>
<g id="Stars_1_">
	<g id="Rounded_Rectangle_2_copy_2">
		<g>
			<path fill-rule="evenodd" clip-rule="evenodd" fill="#95D048" d="M197,28c-1.104,0-2,0.896-2,2v3c0,1.104,0.896,2,2,2
				s2-0.896,2-2v-3C199,28.896,198.104,28,197,28z M197,41c-1.104,0-2,0.896-2,2v3c0,1.104,0.896,2,2,2s2-0.896,2-2v-3
				C199,41.896,198.104,41,197,41z M205,36h-3c-1.104,0-2,0.896-2,2s0.896,2,2,2h3c1.104,0,2-0.896,2-2S206.104,36,205,36z M192,36
				h-3c-1.104,0-2,0.896-2,2s0.896,2,2,2h3c1.104,0,2-0.896,2-2S193.104,36,192,36z"/>
		</g>
	</g>
	<g id="Rounded_Rectangle_2_copy_3">
		<g>
			<path fill-rule="evenodd" clip-rule="evenodd" fill="#F76B7E" d="M12.95,64.879l2.122-2.121c0.781-0.781,0.781-2.048,0-2.829
				c-0.781-0.781-2.048-0.781-2.829,0l-2.122,2.121c-0.781,0.781-0.781,2.048,0,2.829C10.902,65.66,12.168,65.66,12.95,64.879z
				 M3.05,69.121l-2.122,2.121c-0.781,0.781-0.781,2.048,0,2.829c0.781,0.781,2.047,0.781,2.829,0l2.121-2.121
				c0.781-0.781,0.781-2.048,0-2.829C5.098,68.34,3.831,68.34,3.05,69.121z M12.95,69.121c-0.781-0.781-2.047-0.781-2.829,0
				c-0.781,0.781-0.781,2.048,0,2.829l2.122,2.121c0.781,0.781,2.047,0.781,2.829,0c0.781-0.781,0.781-2.048,0-2.829L12.95,69.121z
				 M3.757,59.929c-0.781-0.781-2.047-0.781-2.829,0c-0.781,0.781-0.781,2.048,0,2.829l2.122,2.121c0.781,0.781,2.047,0.781,2.828,0
				c0.781-0.781,0.781-2.048,0-2.829L3.757,59.929z"/>
		</g>
	</g>
	<g id="Ellipse_2">
		<g>
			<circle fill="#8BD7F3" cx="40.5" cy="23.5" r="3.5"/>
		</g>
	</g>
	<g id="Ellipse_2_copy_3">
		<g>
			<circle fill="#D3DADC" cx="162" cy="21" r="2"/>
		</g>
	</g>
	<g id="Ellipse_2_copy_4">
		<g>
			<circle fill="#D3DADC" cx="45" cy="79" r="2"/>
		</g>
	</g>
	<g id="Ellipse_2_copy_2">
		<g>
			<path fill="#FFDA8C" d="M180.5,75c-3.59,0-6.5,2.91-6.5,6.5s2.91,6.5,6.5,6.5s6.5-2.91,6.5-6.5S184.09,75,180.5,75z M180.5,84
				c-1.381,0-2.5-1.119-2.5-2.5s1.119-2.5,2.5-2.5s2.5,1.119,2.5,2.5S181.881,84,180.5,84z"/>
		</g>
	</g>
</g>
</svg>
