<?xml version="1.0" encoding="utf-8"?>
<svg viewBox="0 0 100 100" xmlns="http://www.w3.org/2000/svg">
  <defs>
    <symbol id="raise" viewBox="0 0 23 20">
      <g id="Icon">
        <g>
          <path fill="#C6C8CC" d="M6,0v4h2V2h13v10h-2v2h4V0H6z M0,20h17V6H0V20z"/>
        </g>
      </g>
    </symbol>
    <symbol id="flip-x" viewBox="0 0 24 28">
      <g id="Flip_horizontal">
        <g>
          <path fill="#C6C8CC" d="M12,18C12,18,12,18,12,18h-1v3c0,0,0,0,0,0.001V22h2v-4H12C12,18,12,18,12,18z M12,24h-1v3&#10;            c0,0,0,0,0,0.001V28h2v-4H12C12,24,12,24,12,24z M0,20C0,20,0,20,0,20v2h9v-2H2V8h7V6H0V20z M12,12C12,12,12,12,12,12h-1v3&#10;            c0,0,0,0,0,0.001V16h2v-4H12C12,12,12,12,12,12z M15,6v16h9V6H15z M12,0h-1v3c0,0,0,0,0,0.001V4h2V0H12C12,0,12,0,12,0z M11,9&#10;            C11,9,11,9,11,9v1h2V6h-2V9z"/>
        </g>
      </g>
    </symbol>
    <symbol id="flip-y" viewBox="0 0 28 24">
      <g id="Flip_vertical">
        <g>
          <path fill="#C6C8CC" d="M0,13h0.999C1,13,1,13,1,13h3v-2H0V13z M16,13v-2h-4v2h0.999c0,0,0,0,0.001,0H16z M7,13h3v-2H6v2H7&#10;            C7,13,7,13,7,13z M20,22H8v-7H6v9h1.999C8,24,8,24,8,24h14v-9h-2V22z M24,11v1c0,0,0,0,0,0.001V13h0.999C25,13,25,13,25,13h3v-2&#10;            H24z M18,13h0.999C19,13,19,13,19,13h3v-2h-4V13z M6,9h16V0H6V9z"/>
        </g>
      </g>
    </symbol>
    <symbol id="lower" viewBox="0 0 23 20">
      <g id="Icon">
        <g>
          <path fill="#C6C8CC" d="M6,0v4h13v10h4V0H6z M0,20h17V6H0V20z M2,8h13v10H2V8z"/>
        </g>
      </g>
    </symbol>
    <symbol id="gradient" viewBox="0 0 100 100">
      <path d="M 44.445 33.334 L 55.555 33.334 L 55.555 44.445 L 44.445 44.445 Z M 33.334 44.445 L 44.445 44.445 L 44.445 55.555 L 33.334 55.555 Z M 55.555 44.445 L 66.666 44.445 L 66.666 55.555 L 55.555 55.555 Z M 66.666 33.334 L 77.777 33.334 L 77.777 44.445 L 66.666 44.445 Z M 22.223 33.334 L 33.334 33.334 L 33.334 44.445 L 22.223 44.445 Z M 88.889 0 L 11.111 0 C 5.001 0 0 5.001 0 11.111 L 0 88.889 C 0 94.999 5.001 100 11.111 100 L 88.889 100 C 94.999 100 100 94.999 100 88.889 L 100 11.111 C 100 5.001 94.999 0 88.889 0 Z M 33.334 83.332 L 22.223 83.332 L 22.223 72.223 L 33.334 72.223 L 33.334 83.332 Z M 55.555 83.332 L 44.445 83.332 L 44.445 72.223 L 55.555 72.223 L 55.555 83.332 Z M 77.777 83.332 L 66.666 83.332 L 66.666 72.223 L 77.777 72.223 L 77.777 83.332 Z M 88.889 44.445 L 77.777 44.445 L 77.777 55.555 L 88.889 55.555 L 88.889 66.666 L 77.777 66.666 L 77.777 55.555 L 66.666 55.555 L 66.666 66.666 L 55.555 66.666 L 55.555 55.555 L 44.445 55.555 L 44.445 66.666 L 33.334 66.666 L 33.334 55.555 L 22.223 55.555 L 22.223 66.666 L 11.111 66.666 L 11.111 55.555 L 22.223 55.555 L 22.223 44.445 L 11.111 44.445 L 11.111 11.111 L 88.889 11.111 L 88.889 44.445 Z" style="stroke-width: 2.37;"/>
    </symbol>
    <symbol id="delete" viewBox="0 0 22 24">
      <g id="Shape_15">
        <g>
          <path fill="#C6C8CC" d="M7,8C6.447,8,6,8.447,6,9v10c0,0.553,0.447,1,1,1s1-0.447,1-1V9C8,8.447,7.553,8,7,8z M20,2h-4&#10;            c0-1.104-0.898-2-2-2H8C6.898,0,6,0.896,6,2H2C0.898,2,0,2.896,0,4v4h2v14c0,1.104,0.898,2,2,2h14c1.102,0,2-0.896,2-2V8h2V4&#10;            C22,2.896,21.102,2,20,2z M20,6h-2v16H4V6H2V4h6V2h6v2h6V6z M11,8c-0.553,0-1,0.447-1,1v10c0,0.553,0.447,1,1,1s1-0.447,1-1V9&#10;            C12,8.447,11.553,8,11,8z M14,19c0,0.553,0.447,1,1,1s1-0.447,1-1V9c0-0.553-0.447-1-1-1s-1,0.447-1,1V19z"/>
        </g>
      </g>
    </symbol>
    <symbol id="grab-color" viewBox="0 0 24 24">
      <g id="Shape_13">
        <g>
          <path d="M4.603,20.795c-0.388,0.389-1.021,0.389-1.409,0s-0.388-1.021,0-1.408l6.957-6.956l-1.408-1.409&#10;            l-6.959,6.956c-0.917,0.917-1.099,2.281-0.573,3.393l-0.833,0.834c-0.387,0.388-0.387,1.021,0,1.409&#10;            C0.764,24,1.398,24,1.785,23.612l0.835-0.833c1.11,0.525,2.474,0.342,3.392-0.575l6.957-6.956l-1.409-1.409L4.603,20.795z&#10;             M23.996,3.979c0-1.021-0.388-2.043-1.165-2.82c-0.778-0.778-1.802-1.166-2.824-1.164c-1.019,0.002-2.036,0.39-2.812,1.165&#10;            l-3.643,3.643c-1.111-0.53-2.483-0.335-3.402,0.583c-1.165,1.165-1.165,3.062,0,4.228l4.227,4.227&#10;            c0.572,0.57,1.326,0.879,2.102,0.869c0.799,0.011,1.555-0.299,2.127-0.87c0.918-0.918,1.112-2.291,0.582-3.401l3.644-3.643&#10;            C23.607,6.019,23.996,4.999,23.996,3.979z M21.422,5.386l-4.932,4.931l0.705,0.705c0.389,0.389,0.389,1.021,0,1.409&#10;            c-0.188,0.188-0.434,0.288-0.717,0.285c-0.258,0.004-0.504-0.098-0.692-0.285L11.56,8.203c-0.388-0.388-0.388-1.02,0-1.408&#10;            c0.388-0.388,1.02-0.389,1.409,0l0.705,0.704l4.93-4.931c0.777-0.776,2.043-0.776,2.818,0C22.199,3.346,22.199,4.609,21.422,5.386&#10;            z"/>
        </g>
      </g>
    </symbol>
    <symbol id="search" viewBox="0 0 23.62 24">
      <g id="Shape_1-2" data-name="Shape 1">
        <path class="cls-1" d="M13.67,4.27a6.76,6.76,0,0,0-5.24.61,6.94,6.94,0,0,0-3.28,4.2,1,1,0,0,0,.68,1.24,0.94,0.94,0,0,0,.27,0A1,1,0,0,0,7,9.62a5,5,0,0,1,2.34-3,4.83,4.83,0,0,1,3.74-.44,1,1,0,0,0,1.22-.69A1,1,0,0,0,13.67,4.27Zm9.85,13-1.84-1.86A11.06,11.06,0,0,0,22.6,11,10.93,10.93,0,0,0,11.78,0,10.67,10.67,0,0,0,4.12,3.22,11,11,0,0,0,1,11,10.93,10.93,0,0,0,11.78,22a10.61,10.61,0,0,0,4.34-.93L18,22.93A3.59,3.59,0,0,0,20.54,24a4,4,0,0,0,2.84-1.22A4,4,0,0,0,23.52,17.27ZM11.78,20A9,9,0,0,1,5.51,4.64,8.73,8.73,0,0,1,11.78,2a8.94,8.94,0,0,1,8.86,9A8.94,8.94,0,0,1,11.78,20ZM22,21.37a1.85,1.85,0,0,1-2.64.15l-1.44-1.46a11,11,0,0,0,2.78-2.83l1.44,1.46A1.93,1.93,0,0,1,22,21.37Z" transform="translate(-0.95)" style="stroke: none;"/>
      </g>
    </symbol>
    <symbol id="type" viewBox="0 0 24 22">
      <g id="Shape_6-2" data-name="Shape 6">
        <path class="cls-1" d="M13,4H11V20H6v2H18V20H13V4ZM0,0V6H2V2H22V6h2V0H0Z" style="stroke: none;"/>
      </g>
    </symbol>
    <symbol id="select" viewBox="0 0 15 24">
      <g id="Shape_7-2" data-name="Shape 7">
        <path class="cls-1" d="M14.75,19.48L11,12.66l2.11-.73a2.07,2.07,0,0,0,1.35-1.67,2.13,2.13,0,0,0-.81-2L3.17,0.39A1.93,1.93,0,0,0,1.09.23,2.1,2.1,0,0,0,0,2.09V16.16a2.09,2.09,0,0,0,1.15,1.89,1.93,1.93,0,0,0,2.13-.29l1.94-1.69L9,22.95a2,2,0,0,0,1.22,1,1.92,1.92,0,0,0,.52.07,1.94,1.94,0,0,0,1-.29L14,22.32A2.14,2.14,0,0,0,14.75,19.48Zm-4,2.43-4.94-9L2,16.16V2.09L12.5,10,8.07,11.48l4.94,9Z" transform="translate(-0.01 0)" style="stroke: none;"/>
      </g>
    </symbol>
    <symbol id="background" viewBox="0 0 26 24">
      <g id="Shape_1_copy_10-2" data-name="Shape 1 copy 10">
        <path class="cls-1" d="M2,2H5V0H0V5H2V2ZM2,19H0v5H5V22H2V19ZM21,0V2h3V5h2V0H21Zm3,22H21v2h5V19H24v3ZM4,7.32L16.68,20h2.65L4,4.68V7.32ZM22,4.68L21.32,4H18.68L22,7.32V4.68Zm0,12L9.32,4H6.68L22,19.32V16.68Zm0-6L15.32,4H12.68L22,13.32V10.68ZM4,13.32L10.68,20h2.64L4,10.68v2.64Zm0,6L4.68,20H7.32L4,16.68v2.64Z" style="stroke: none;"/>
      </g>
    </symbol>
    <symbol id="help" viewBox="0 0 100 100">
      <path d="M45,80H55V70H45V80ZM50,0a50,50,0,1,0,50,50A50,50,0,0,0,50,0Zm0,90A40,40,0,1,1,90,50,40.05,40.05,0,0,1,50,90Zm0-70A20,20,0,0,0,30,40H40a10,10,0,0,1,20,0c0,10-15,8.75-15,25H55c0-11.25,15-12.5,15-25A20,20,0,0,0,50,20Z"/>
    </symbol>
    <symbol id="arrow-down" viewBox="0 0 100 100">
      <path d="M 87.471 20.049 L 50 57.439 L 12.529 20.049 L 1.018 31.559 L 50 80.541 L 98.982 31.559 Z" style="stroke-width: 8.164;"/>
      <path d="M 38 38 L 62 38 L 62 62 L 38 62 Z" fill="none"/>
    </symbol>
    <symbol id="arrow-up-alt" viewBox="0 0 100 100">
      <path d="M 98.982 74.491 L 1.018 74.491 L 50 25.509 L 98.982 74.491 Z" style="stroke-width: 8.164;"/>
    </symbol>
    <symbol id="arrow-down-alt" viewBox="0 0 100 100">
      <path d="M 98.982 31.559 L 1.018 31.559 L 50 80.541 L 98.982 31.559 Z" style="stroke-width: 8.164;"/>
      <path d="M 38 38 L 62 38 L 62 62 L 38 62 Z" fill="none"/>
    </symbol>
    <symbol id="arrow-right" viewBox="0 0 9.67 7.36">
      <path class="cls-1" d="M5.78,9.68L6,7.34H1.17V4.64H6L5.78,2.32,10.83,6Z" transform="translate(-1.17 -2.32)"/>
    </symbol>
    <symbol id="x-separator" viewBox="0 0 100 100">
      <g transform="matrix(1.338921, 0, 0, 1.33465, -2.936254, -17.545307)">
        <path d="M 10.997 13.146 L 2.193 21.95 L 30.791 50.609 L 2.193 79.268 L 10.997 88.072 L 48.461 50.609 Z" style="stroke-width: 6.244;"/>
        <path d="M 39.416 88.072 L 30.612 79.268 L 59.21 50.609 L 30.612 21.95 L 39.416 13.146 L 76.88 50.609 Z" style="stroke-width: 6.244;" transform="matrix(-1, 0, 0, -1, 107.492, 101.217999)"/>
      </g>
      <path d="M 38 38 L 62 38 L 62 62 L 38 62 Z" fill="none"/>
    </symbol>
    <symbol id="text-on-path" viewBox="0 0 100 100">
      <path fill-rule="evenodd" clip-rule="evenodd" d="M 0.807 86.791 L 6.305 93.54 C 6.677 93.163 44.321 56.208 91.211 93.856 L 95.994 86.475 C 43.814 44.554 1.236 86.367 0.807 86.791 Z M 13.512 48.485 L 27.772 44.29 L 33.269 51.485 L 41.105 49.182 L 16.331 17.703 L 8.712 19.941 L 5.305 59.701 L 12.945 57.454 L 13.512 48.485 Z M 14.88 27.17 L 23.69 38.961 L 13.958 41.827 L 14.88 27.17 Z M 49.342 46.429 C 50.355 47.978 51.598 49.173 53.056 50.004 C 54.515 50.84 56.022 51.29 57.554 51.359 C 60.68 51.494 63.394 50.368 65.688 47.983 C 67.982 45.598 69.229 42.109 69.428 37.511 C 69.623 33.07 68.701 29.611 66.658 27.144 C 64.615 24.676 61.957 23.369 58.68 23.226 C 55.671 23.096 53.013 24.23 50.71 26.637 L 51.295 13.257 L 44.178 12.941 L 42.555 50.091 L 49.169 50.377 L 49.342 46.429 Z M 50.238 36.36 C 50.355 33.659 51.013 31.667 52.199 30.39 C 53.39 29.113 54.836 28.512 56.546 28.59 C 58.286 28.667 59.684 29.403 60.74 30.815 C 61.796 32.226 62.255 34.468 62.117 37.542 C 61.996 40.429 61.346 42.52 60.182 43.818 C 59.017 45.113 57.649 45.723 56.082 45.658 C 54.035 45.567 52.437 44.55 51.29 42.602 C 50.468 41.23 50.117 39.152 50.238 36.36 Z M 88.146 51.121 C 87.077 51.571 85.908 51.571 84.627 51.126 C 82.913 50.533 81.77 49.437 81.185 47.844 C 80.601 46.247 80.835 43.94 81.874 40.914 C 82.817 38.195 83.986 36.433 85.384 35.62 C 86.787 34.806 88.328 34.689 89.999 35.269 C 91.263 35.706 92.172 36.399 92.735 37.342 C 93.293 38.291 93.458 39.459 93.22 40.862 L 100.271 41.961 C 100.418 38.953 99.808 36.464 98.44 34.494 C 97.072 32.529 94.834 31.009 91.739 29.936 C 87.951 28.624 84.54 28.758 81.51 30.33 C 78.48 31.901 76.233 34.788 74.779 38.996 C 73.341 43.152 73.324 46.784 74.727 49.9 C 76.125 53.017 78.688 55.221 82.41 56.502 C 85.687 57.636 88.566 57.766 91.051 56.892 C 93.536 56.013 95.652 54.177 97.388 51.381 L 91.163 47.965 C 90.22 49.623 89.211 50.675 88.146 51.121 Z" style="opacity: 0.85;"/>
    </symbol>
    <symbol id="rotate" viewBox="0 0 100 100">
      <path class="cls-1" d="M 51.449 28.624 L 51.449 17.958 L 30.118 36.624 L 51.449 55.287 L 51.449 39.609 C 61.516 41.582 65.682 53.714 58.941 61.451 C 53.342 67.879 43.237 67.472 38.171 60.621 L 30.597 68.087 C 35.062 73.467 41.684 76.592 48.677 76.619 C 67.148 77.691 79.85 58.359 71.537 41.828 C 67.675 34.154 60.018 29.12 51.449 28.624 Z" style="stroke-width: 8.965;"/>
    </symbol>
    <symbol id="shapes" viewBox="0 0 24 25">
      <path class="cls-1" d="M 22.635 13.996 L 15.241 1.338 L 11.164 8.308 C 11.378 8.716 11.561 9.138 11.711 9.573 L 14.739 4.364 L 15.241 3.539 L 15.721 4.364 L 20.182 12.07 L 20.706 12.895 L 14.834 12.895 L 14.39 12.842 C 14.325 13.215 14.235 13.582 14.123 13.944 L 22.669 13.996 L 22.635 13.996 Z"/>
      <path class="cls-1" d="M 7.12 10.771 C 2.653 10.771 -0.139 15.607 2.095 19.475 C 4.328 23.344 9.912 23.344 12.145 19.475 C 12.655 18.593 12.923 17.593 12.923 16.574 C 12.917 13.372 10.322 10.777 7.12 10.771 Z M 7.12 21.321 C 3.465 21.321 1.181 17.365 3.008 14.2 C 4.836 11.035 9.404 11.035 11.231 14.2 C 11.648 14.922 11.868 15.741 11.868 16.574 C 11.862 19.193 9.74 21.316 7.12 21.321 Z"/>
    </symbol>
    <symbol id="templates" viewBox="0 0 100 100">
      <rect x="9.048" y="15.555" width="82.267" height="73.569" style="fill: none; stroke-width: 7;"/>
      <path d="M 9.104 44.933 L 90.571 44.933" style="fill: none; stroke-width: 7;"/>
      <path d="M 49.466 46.013 L 49.466 89.295" style="fill: none; stroke-width: 7;"/>
    </symbol>
    <symbol id="illustrations" viewBox="0 0 23 24">
      <polygon class="cls-1" points="17 3.5 17 7 17 7.24 16.81 7.39 13.2 10.26 13.89 11.09 21.77 5.22 21.02 4.37 18.79 5.91 18 6.45 18 5.5 18 2 11.5 2 11 2 11 1.5 11 0 10 0 10 1.5 10 2 9.5 2 3 2 3 14 4 14 4 3.5 4 3 4.5 3 16.5 3 17 3 17 3.5"/>
      <polygon class="cls-1" points="17 14 18 14 18 11.47 17 12.22 17 14"/>
      <polygon class="cls-1" points="5.98 18.68 4.36 23 5.43 23 7.18 18.32 7.3 18 7.65 18 9.5 18 10 18 10 18.5 10 23 11 23 11 18.5 11 18 11.5 18 14.27 18 14.61 18 14.73 18.32 16.49 23 17.55 23 15.93 18.68 15.68 18 16.4 18 21 18 21 17 0 17 0 18 5.51 18 6.24 18 5.98 18.68"/>
      <rect class="cls-1" x="10.64" y="12.54" width="2.2" height="1" transform="translate(-5.98 9.14) rotate(-36.85)"/>
    </symbol>
    <symbol id="pen" viewBox="0 0 63.44 95.32">
      <path class="cls-1" d="M81.83,62.26L49.88,2.48,18.39,62.74,37.54,86l25.57,0.46ZM40.89,79.06L26.74,61.88,46.48,24.11V55.58h7V24.06l20,37.5L59.72,79.4Z" transform="translate(-18.39 -2.48)"/>
      <rect class="cls-1" x="20.08" y="88.32" width="24.94" height="7"/>
    </symbol>
    <symbol id="align-horizontal-centers" viewBox="0 0 100 100">
      <g transform="matrix(5.549032, 0, 0, 5.549032, 11.156774, 0.058714)">
        <g>
          <path fill-rule="evenodd" clip-rule="evenodd" d="M14,10H8V8h3V2H8V0H6v2H3v6h3v2H0v6h6v2h2v-2h6V10z M12,14H2v-2&#10;&#9;&#9;&#9;h10V14z"/>
        </g>
      </g>
    </symbol>
    <symbol id="align-vertical-centers" viewBox="0 0 100 100">
      <g transform="matrix(5.567658, 0, 0, 5.567658, -0.108924, 11.026395)">
        <g>
          <path fill-rule="evenodd" clip-rule="evenodd" d="M16,6V3h-6v3H8V0H2v6H0v2h2v6h6V8h2v3h6V8h2V6H16z M6,12H4V2h2&#10;&#9;&#9;&#9;V12z"/>
        </g>
      </g>
    </symbol>
    <symbol id="align-top-edges" viewBox="0 0 100 100">
      <g transform="matrix(5.561257, 0, 0, 5.561257, -0.051319, -0.051315)">
        <g>
          <path fill-rule="evenodd" clip-rule="evenodd" d="M0,0v2h18V0H0z M10,12h6V4h-6V12z M2,18h6V4H2V18z M4,6h2v10H4V6&#10;&#9;&#9;&#9;z"/>
        </g>
      </g>
    </symbol>
    <symbol id="align-bottom-edges" viewBox="0 0 100 100">
      <g transform="matrix(5.53857, 0, 0, 5.53857, 0.152861, 0.152865)">
        <g>
          <path fill-rule="evenodd" clip-rule="evenodd" d="M0,16v2h18v-2H0z M16,6h-6v8h6V6z M8,0H2v14h6V0z M6,12H4V2h2V12&#10;&#9;&#9;&#9;z"/>
        </g>
      </g>
    </symbol>
    <symbol id="align-left-edges" viewBox="0 0 100 100">
      <g transform="matrix(5.561257, 0, 0, 5.561257, -0.051319, -0.051316)">
        <g>
          <path fill-rule="evenodd" clip-rule="evenodd" d="M0,18h2V0H0V18z M12,2H4v6h8V2z M4,10v6h14v-6H4z M16,14H6v-2h10&#10;&#9;&#9;&#9;V14z"/>
        </g>
      </g>
    </symbol>
    <symbol id="align-right-edges" viewBox="0 0 100 100">
      <g transform="matrix(5.561257, 0, 0, 5.561257, -0.05132, -0.051316)">
        <g>
          <path fill-rule="evenodd" clip-rule="evenodd" d="M16,0v18h2V0H16z M6,8h8V2H6V8z M0,16h14v-6H0V16z M2,12h10v2H2&#10;&#9;&#9;&#9;V12z"/>
        </g>
      </g>
    </symbol>
    <symbol id="text-align-left" viewBox="0 0 24 24">
      <path d="M15 15H3v2h12v-2zm0-8H3v2h12V7zM3 13h18v-2H3v2zm0 8h18v-2H3v2zM3 3v2h18V3H3z"/>
    </symbol>
    <symbol id="text-align-center" viewBox="0 0 24 24">
      <path d="M7 15v2h10v-2H7zm-4 6h18v-2H3v2zm0-8h18v-2H3v2zm4-6v2h10V7H7zM3 3v2h18V3H3z"/>
    </symbol>
    <symbol id="text-align-right" viewBox="0 0 24 24">
      <path d="M3 21h18v-2H3v2zm6-4h12v-2H9v2zm-6-4h18v-2H3v2zm6-4h12V7H9v2zM3 3v2h18V3H3z"/>
    </symbol>
    <symbol id="zoom-in" viewBox="0 0 100 100">
      <rect y="40.109" width="100" height="19.782" style="stroke-width: 1.789;"/>
      <rect y="40.109" width="100" height="19.782" style="stroke-width: 1.789;" transform="matrix(0, 1, -1, 0, 99.999794, 0.000005)"/>
    </symbol>
    <symbol id="zoom-out" viewBox="0 0 100 100">
      <rect y="40.109" width="100" height="19.782" style="stroke-width: 1.789;"/>
    </symbol>
    <symbol id="close" viewBox="0 0 100 100">
      <rect y="40.109" width="100" height="19.782" style="stroke-width: 1.789;" transform="matrix(0.707107, 0.707107, -0.707107, 0.707107, 49.999996, -20.710676)"/>
      <rect y="40.109" width="100" height="19.782" style="stroke-width: 1.789;" transform="matrix(-0.707107, 0.707107, -0.707107, -0.707107, 120.710654, 49.99998)"/>
    </symbol>
    <symbol id="duplicate-form" viewBox="0 0 100 100">
      <path d="M 0 0 L 100 0 L 100 100 L 0 100 Z M 51.168 87.501 L 79.012 49.293 L 61.459 50.957 L 61.459 14.413 L 41.029 14.413 L 41.029 50.957 L 23.324 49.293 Z"/>
    </symbol>
    <symbol id="info" viewBox="0 0 100 100">
      <path d="M 44.988 34.106 L 54.988 34.106 L 54.988 24.106 L 44.988 24.106 L 44.988 34.106 Z M 49.988 -0.146 C 11.498 -0.146 -12.558 41.521 6.687 74.854 C 25.932 108.187 74.045 108.187 93.29 74.854 C 97.678 67.253 99.988 58.631 99.988 49.854 C 99.988 22.24 77.602 -0.146 49.988 -0.146 Z M 49.988 89.854 C 19.196 89.854 -0.049 56.521 15.347 29.854 C 30.743 3.187 69.233 3.187 84.629 29.854 C 88.14 35.935 89.988 42.833 89.988 49.854 C 89.961 71.934 72.068 89.826 49.988 89.854 Z M 54.988 74.721 L 55.079 41.767 L 44.639 41.947 L 44.988 74.721 L 54.988 74.721 Z"/>
    </symbol>
    <symbol id="info-alt" viewBox="0 0 100 100">
      <path d="M 50.226 0.122 C 11.736 0.122 -12.32 41.789 6.925 75.122 C 26.17 108.455 74.283 108.455 93.528 75.122 C 97.916 67.521 100.226 58.899 100.226 50.122 C 100.226 22.508 77.84 0.122 50.226 0.122 Z M 45.226 74.989 L 44.877 42.215 L 55.317 42.035 L 55.226 74.989 Z M 45.226 24.374 L 55.226 24.374 L 55.226 34.374 L 45.226 34.374 Z"/>
    </symbol>
    <symbol id="close-circle" viewBox="0 0 100 100">
      <path d="M 50.446 0.122 C 11.956 0.122 -12.1 41.789 7.145 75.122 C 26.39 108.455 74.503 108.455 93.748 75.122 C 98.136 67.521 100.446 58.899 100.446 50.122 C 100.446 22.508 78.06 0.122 50.446 0.122 Z M 50.446 90.122 C 19.654 90.122 0.409 56.789 15.805 30.122 C 31.201 3.455 69.691 3.455 85.087 30.122 C 88.598 36.203 90.446 43.101 90.446 50.122 C 90.419 72.202 72.526 90.094 50.446 90.122 Z"/>
      <path d="M 39.008 32.649 L 50.467 44.108 L 61.8 32.774 L 68.391 39.364 L 57.057 50.698 L 68.516 62.157 L 61.674 68.998 L 50.216 57.539 L 38.883 68.872 L 32.293 62.281 L 43.625 50.949 L 32.167 39.49 Z" style="stroke-width: 1.789;"/>
    </symbol>
    <symbol id="close-circle-alt" viewBox="0 0 100 100">
      <path d="M 50.006 0.121 C 11.516 0.121 -12.54 41.788 6.705 75.121 C 25.95 108.454 74.063 108.454 93.308 75.121 C 97.696 67.52 100.006 58.898 100.006 50.121 C 100.006 22.507 77.62 0.121 50.006 0.121 Z M 38.568 32.648 L 50.027 44.107 L 61.36 32.773 L 67.951 39.363 L 56.617 50.697 L 68.076 62.156 L 61.234 68.997 L 49.776 57.538 L 38.443 68.871 L 31.853 62.28 L 43.185 50.948 L 31.727 39.489 Z"/>
    </symbol>
    <symbol id="selected" viewBox="0 0 100 100">
      <path d="M 50.226 0.341 C 11.736 0.341 -12.32 42.008 6.925 75.341 C 26.17 108.674 74.283 108.674 93.528 75.341 C 97.916 67.74 100.226 59.118 100.226 50.341 C 100.226 22.727 77.84 0.341 50.226 0.341 Z M 37.249 44.302 L 48.708 55.761 L 69.497 33.212 L 76.968 40.901 L 55.298 64.33 L 48.457 71.171 L 41.866 64.581 L 29.968 52.682 L 37.249 44.302 Z"/>
    </symbol>
    <symbol id="back" viewBox="0 0 100 100">
      <path d="M 51.325 -0.978 C 12.835 -0.978 -11.221 40.689 8.024 74.022 C 27.269 107.355 75.382 107.355 94.627 74.022 C 99.015 66.421 101.325 57.799 101.325 49.022 C 101.325 21.408 78.939 -0.978 51.325 -0.978 Z M 51.325 89.022 C 20.533 89.022 1.288 55.689 16.684 29.022 C 32.08 2.355 70.57 2.355 85.966 29.022 C 89.477 35.103 91.325 42.001 91.325 49.022 C 91.298 71.102 73.405 88.994 51.325 89.022 Z"/>
      <path d="M 43.176 68.921 L 56.23 55.866 L 63.738 48.359 L 55.944 40.565 L 43.033 27.654 L 35.525 35.163 L 48.436 48.073 L 35.382 61.128 L 43.176 68.921 Z" style="stroke-width: 1.789;" transform="matrix(-1, 0, 0, -1, 99.11997, 96.574991)"/>
    </symbol>
    <symbol id="back-alt" viewBox="0 0 100 100">
      <path d="M 50.225 0.341 C 11.735 0.341 -12.321 42.008 6.924 75.341 C 26.169 108.674 74.282 108.674 93.527 75.341 C 97.915 67.74 100.225 59.118 100.225 50.341 C 100.225 22.727 77.839 0.341 50.225 0.341 Z M 62.638 36.766 L 49.584 49.821 L 62.495 62.731 L 54.987 70.24 L 34.282 49.535 L 41.79 42.028 L 54.844 28.973 Z"/>
    </symbol>
    <symbol id="elements" viewBox="0 0 24 25">
      <path class="cls-1" d="M 7.27 2.175 L 7.27 1.675 L 15.27 1.675 L 15.27 6.605 L 16.27 4.895 L 16.27 0.675 L 6.27 0.675 L 6.27 9.675 L 6.78 9.675 L 6.77 9.675 L 7.26 9.675 L 7.26 2.175 Z"/>
      <path class="cls-1" d="M 23.9 20.675 L 17.27 9.175 L 14.33 14.265 C 14.521 14.636 14.685 15.02 14.82 15.415 L 16.82 11.925 L 17.27 11.175 L 17.7 11.925 L 21.7 18.925 L 22.17 19.675 L 15.17 19.675 C 15.11 20.013 15.03 20.347 14.93 20.675 L 23.93 20.675 Z"/>
      <path class="cls-1" d="M 6.77 12.675 C 2.536 12.675 -0.111 17.258 2.006 20.925 C 4.123 24.592 9.416 24.592 11.533 20.925 C 12.015 20.089 12.27 19.14 12.27 18.175 C 12.264 15.14 9.805 12.68 6.77 12.675 Z M 6.77 22.675 C 3.305 22.675 1.14 18.925 2.872 15.925 C 4.605 12.925 8.935 12.925 10.667 15.925 C 11.062 16.609 11.27 17.385 11.27 18.175 C 11.264 20.658 9.253 22.669 6.77 22.675 Z"/>
    </symbol>
  </defs>
  <path d="M 0 0 L 100 0 L 100 100 L 0 100 Z" fill="none"/>
  <path class="cls-1" d="M 17.834 22.619 L 17.834 22.119 L 25.834 22.119 L 25.834 27.049 L 26.834 25.339 L 26.834 21.119 L 16.834 21.119 L 16.834 30.119 L 17.344 30.119 L 17.334 30.119 L 17.824 30.119 L 17.824 22.619 Z"/>
  <path class="cls-1" d="M 34.464 41.119 L 27.834 29.619 L 24.894 34.709 C 25.085 35.079 25.249 35.464 25.384 35.859 L 27.384 32.369 L 27.834 31.619 L 28.264 32.369 L 32.264 39.369 L 32.734 40.119 L 25.734 40.119 C 25.674 40.456 25.594 40.79 25.494 41.119 L 34.494 41.119 Z"/>
  <path class="cls-1" d="M 17.334 33.119 C 13.1 33.119 10.454 37.702 12.571 41.369 C 14.688 45.035 19.98 45.035 22.097 41.369 C 22.58 40.532 22.834 39.584 22.834 38.619 C 22.828 35.583 20.369 33.124 17.334 33.119 Z M 17.334 43.119 C 13.87 43.119 11.705 39.369 13.437 36.369 C 15.169 33.369 19.499 33.369 21.231 36.369 C 21.626 37.053 21.834 37.829 21.834 38.619 C 21.828 41.102 19.817 43.113 17.334 43.119 Z"/>
</svg>