<?xml version="1.0" encoding="utf-8"?>
<!-- Generator: Adobe Illustrator 15.0.0, SVG Export Plug-In . SVG Version: 6.00 Build 0)  -->
<!DOCTYPE svg PUBLIC "-//W3C//DTD SVG 1.1//EN" "http://www.w3.org/Graphics/SVG/1.1/DTD/svg11.dtd">
<svg version="1.1" id="Layer_1" xmlns="http://www.w3.org/2000/svg" xmlns:xlink="http://www.w3.org/1999/xlink" x="0px" y="0px"
	 width="222.2px" height="58.1px" viewBox="0 0 222.2 58.1" enable-background="new 0 0 222.2 58.1" xml:space="preserve">
<g>
	<path fill="#FFFFFF" d="M35.701,0C36.9,0,38,1.1,38,1.1L18,43.8c-2.199,0-7.5,0.3-8.799,0.3C8,44.1,6.9,43,6.9,43L0,0.3
		C4.201,0.3,9.4,0,10.9,0c1.199,0,2.301,1.1,2.301,1.1L15.3,22c0.199,1.8,0.199,4.3,0.1,6.899c0.699-2.899,1.4-5.6,2.1-7.399
		L25.8,0.4C29.701,0.3,34.3,0,35.701,0L35.701,0z"/>
	<path fill="#FFFFFF" d="M56.3,21.1c0,4.601-2.6,7.7-9.1,9.101L40.4,31.6c0.5,2.9,2.4,4.3,5.4,4.3c3.799,0,6.299-2.8,6.299-2.8
		S54,34.2,54,36.3c0,3.9-6,8.1-12.9,8.1c-7,0-11.6-4.399-11.6-11.899c0-8.601,6.1-20.4,17.1-20.4C52.599,12.1,56.3,15.7,56.3,21.1
		L56.3,21.1z M44.8,25.6c1.5-0.5,1.9-1.6,1.9-3c0-1.3-0.4-3.2-1.9-3.2C42.099,19.4,40.9,23.7,40.5,27L44.8,25.6z"/>
	<path fill="#FFFFFF" d="M74.701,12.1c5.5,0,9.699,2.9,9.699,6.7c0,4.7-5.699,6.5-5.699,6.5s-1.701-5.2-5.5-5.2
		c-2.602,0-4.102,2.601-4.102,8.3c0,5.2,1.4,7.5,4.701,7.5c3.5,0,5.6-2.3,5.6-2.3s1.9,1.101,1.9,3.2c0,3.7-5.701,7.7-12.4,7.7
		c-7.1,0-11.5-4.4-11.5-11.8C57.3,23.8,63.599,12.1,74.701,12.1L74.701,12.1z"/>
	<path fill="#FFFFFF" d="M101.201,5.2c1.299,0,2.199,1,2.199,1l-1,6.5h6.9l-1.6,5c-0.5,1.6-1.301,2.5-2.9,2.5h-3.6l-2,12.699
		c-0.301,2.101,0.1,3,1.5,3c1.299,0,2.5-0.8,2.5-0.8s1.898,1.101,1.898,3.101c0,3.1-4.398,6.199-10.1,6.199c-6,0-8.4-3.6-7.4-10
		L89.9,20.2h-3.801l1.602-5.2c0.398-1.3,1.5-2.3,2.898-2.3H92.4l2.199-6C97.4,6.1,99.9,5.2,101.201,5.2L101.201,5.2z"/>
	<path fill="#FFFFFF" d="M134.8,21.1c0,4.601-2.6,7.7-9.1,9.101L118.9,31.6c0.5,2.9,2.4,4.3,5.4,4.3c3.799,0,6.299-2.8,6.299-2.8
		s1.9,1.101,1.9,3.2c0,3.9-6,8.1-12.9,8.1c-7,0-11.6-4.399-11.6-11.899c0-8.601,6.1-20.4,17.1-20.4C131,12.1,134.8,15.7,134.8,21.1
		L134.8,21.1z M123.3,25.6c1.5-0.5,1.9-1.6,1.9-3c0-1.3-0.4-3.2-1.9-3.2c-2.701,0-3.9,4.301-4.301,7.601L123.3,25.6z"/>
	<path fill="#FFFFFF" d="M162.5,21.1c0,4.601-2.6,7.7-9.1,9.101l-6.801,1.399c0.5,2.9,2.4,4.3,5.4,4.3c3.801,0,6.301-2.8,6.301-2.8
		s1.9,1.101,1.9,3.2c0,3.9-6,8.1-12.9,8.1c-7,0-11.6-4.399-11.6-11.899c0-8.601,6.1-20.4,17.1-20.4
		C158.8,12.1,162.5,15.7,162.5,21.1L162.5,21.1z M151,25.6c1.5-0.5,1.9-1.6,1.9-3c0-1.3-0.4-3.2-1.9-3.2
		c-2.699,0-3.9,4.301-4.299,7.601L151,25.6z"/>
	<path fill="#FFFFFF" d="M185.201,32.7c0,0,2.299,2.1,2.299,5.699c0,4.801-4,6-7.4,6c-4.398,0-7.6-2.1-11-3.199
		c-0.898,1.1-1.898,2.199-2.699,3.199c0,0-5-0.1-5-3.5c0-4.1,6.9-11.199,14.301-19.199c-0.9-0.2-1.701-0.301-2.4-0.301
		c-4.201,0-5.801,2.101-5.801,2.101s-2.199-2.5-2-5.7c0.201-4.5,4.5-5.7,7.9-5.7c3.6,0,6.199,1.4,8.801,2.5l2.1-2.5c0,0,5,0.2,5,3.5
		c0,4-6.701,10.9-13.9,18.601c1.5,0.399,2.9,0.8,4.301,0.8C183.5,35.1,185.201,32.7,185.201,32.7L185.201,32.7z"/>
	<path fill="#FFFFFF" d="M217.5,41.7C215.701,52.6,208.201,58.1,198.8,58.1c-6,0-10.5-3.2-10.5-6.8c0-2.4,2-3.5,2-3.5
		s2.1,1.9,6.1,1.9c3.801,0,8.9-1.601,9.801-7.301L206.9,38c-2.5,3.7-5.9,6.6-10.199,6.6C191.9,44.6,189.8,40.7,191,32.7l1.4-8.601
		c0.801-5.3,1.1-9.6,1.1-9.6c3.4-0.601,7.9-2.2,9.5-2.2c1.201,0,2.4,1,2.4,1l-1.699,10.8l-1.602,9.9c-0.1,0.899,0,1.399,0.9,1.399
		c4,0,6.201-11.399,6.201-11.399c0.799-5.3,1.1-9.601,1.1-9.601c3.4-0.6,7.9-2.199,9.5-2.199c1.199,0,2.4,1,2.4,1L220.5,24
		L217.5,41.7z"/>
</g>
</svg>
