<?xml version="1.0" encoding="utf-8"?>
<svg id="Layer_1" x="0px" y="0px" width="150px" height="58.1px" viewBox="0 0 150 58.1" xmlns="http://www.w3.org/2000/svg">
  <g transform="matrix(1, 0, 0, 1, -78.626434, -2.230537)">
    <path fill="#FFFFFF" d="M 87.382 5.444 L 105.02 5.34 L 115.673 5.34 L 114.073 10.34 C 113.573 11.94 112.772 12.84 111.173 12.84 L 103.82 12.84 L 100.379 44.238 L 90.07 44.362 L 93.228 13.011 L 82.882 12.944 L 84.484 7.744 C 84.882 6.444 85.984 5.444 87.382 5.444 Z"/>
    <path fill="#FFFFFF" d="M134.8,21.1c0,4.601-2.6,7.7-9.1,9.101L118.9,31.6c0.5,2.9,2.4,4.3,5.4,4.3c3.799,0,6.299-2.8,6.299-2.8&#10;&#9;&#9;s1.9,1.101,1.9,3.2c0,3.9-6,8.1-12.9,8.1c-7,0-11.6-4.399-11.6-11.899c0-8.601,6.1-20.4,17.1-20.4C131,12.1,134.8,15.7,134.8,21.1&#10;&#9;&#9;L134.8,21.1z M123.3,25.6c1.5-0.5,1.9-1.6,1.9-3c0-1.3-0.4-3.2-1.9-3.2c-2.701,0-3.9,4.301-4.301,7.601L123.3,25.6z"/>
    <path fill="#FFFFFF" d="M162.5,21.1c0,4.601-2.6,7.7-9.1,9.101l-6.801,1.399c0.5,2.9,2.4,4.3,5.4,4.3c3.801,0,6.301-2.8,6.301-2.8&#10;&#9;&#9;s1.9,1.101,1.9,3.2c0,3.9-6,8.1-12.9,8.1c-7,0-11.6-4.399-11.6-11.899c0-8.601,6.1-20.4,17.1-20.4&#10;&#9;&#9;C158.8,12.1,162.5,15.7,162.5,21.1L162.5,21.1z M151,25.6c1.5-0.5,1.9-1.6,1.9-3c0-1.3-0.4-3.2-1.9-3.2&#10;&#9;&#9;c-2.699,0-3.9,4.301-4.299,7.601L151,25.6z"/>
    <path fill="#FFFFFF" d="M185.201,32.7c0,0,2.299,2.1,2.299,5.699c0,4.801-4,6-7.4,6c-4.398,0-7.6-2.1-11-3.199&#10;&#9;&#9;c-0.898,1.1-1.898,2.199-2.699,3.199c0,0-5-0.1-5-3.5c0-4.1,6.9-11.199,14.301-19.199c-0.9-0.2-1.701-0.301-2.4-0.301&#10;&#9;&#9;c-4.201,0-5.801,2.101-5.801,2.101s-2.199-2.5-2-5.7c0.201-4.5,4.5-5.7,7.9-5.7c3.6,0,6.199,1.4,8.801,2.5l2.1-2.5c0,0,5,0.2,5,3.5&#10;&#9;&#9;c0,4-6.701,10.9-13.9,18.601c1.5,0.399,2.9,0.8,4.301,0.8C183.5,35.1,185.201,32.7,185.201,32.7L185.201,32.7z"/>
    <path fill="#FFFFFF" d="M217.5,41.7C215.701,52.6,208.201,58.1,198.8,58.1c-6,0-10.5-3.2-10.5-6.8c0-2.4,2-3.5,2-3.5&#10;&#9;&#9;s2.1,1.9,6.1,1.9c3.801,0,8.9-1.601,9.801-7.301L206.9,38c-2.5,3.7-5.9,6.6-10.199,6.6C191.9,44.6,189.8,40.7,191,32.7l1.4-8.601&#10;&#9;&#9;c0.801-5.3,1.1-9.6,1.1-9.6c3.4-0.601,7.9-2.2,9.5-2.2c1.201,0,2.4,1,2.4,1l-1.699,10.8l-1.602,9.9c-0.1,0.899,0,1.399,0.9,1.399&#10;&#9;&#9;c4,0,6.201-11.399,6.201-11.399c0.799-5.3,1.1-9.601,1.1-9.601c3.4-0.6,7.9-2.199,9.5-2.199c1.199,0,2.4,1,2.4,1L220.5,24&#10;&#9;&#9;L217.5,41.7z"/>
  </g>
</svg>