<?xml version="1.0" encoding="utf-8"?>
<!-- Generator: Adobe Illustrator 16.0.0, SVG Export Plug-In . SVG Version: 6.00 Build 0)  -->
<!DOCTYPE svg PUBLIC "-//W3C//DTD SVG 1.1//EN" "http://www.w3.org/Graphics/SVG/1.1/DTD/svg11.dtd">
<svg version="1.1" id="Image_1_" xmlns="http://www.w3.org/2000/svg" xmlns:xlink="http://www.w3.org/1999/xlink" x="0px" y="0px"
	 width="209px" height="106px" viewBox="0 0 209 106" enable-background="new 0 0 209 106" xml:space="preserve">
<g id="Main_color">
	<g>
		<path fill="#FFDA8C" d="M153.973,26.998c0.002-0.1,0.008-0.196,0.015-0.295c0.005-0.068,0.011-0.138,0.011-0.207
			c0-14.059-11.439-25.496-25.5-25.496c-0.066,0-0.132,0.006-0.197,0.011c-0.093,0.006-0.186,0.013-0.28,0.015
			c-0.007,0-0.014,0-0.021,0c-0.039,0-0.078-0.003-0.117-0.007H62c-3.86,0-7,3.14-7,6.998v89.984c0,3.859,3.14,6.999,7,6.999h85
			c3.859,0,7-3.14,7-6.999V27.234C153.981,27.157,153.972,27.078,153.973,26.998z"/>
	</g>
</g>
<g id="Shading_left">
	<g>
		<rect x="58" y="4" fill="#FFFFFF" width="4" height="98"/>
	</g>
</g>
<g id="Shading_right">
	<g>
		<polygon fill="#EFC469" points="147,10 147,102 151,102 151,17 		"/>
	</g>
</g>
<g id="Whites">
	<g>
		<path fill-rule="evenodd" clip-rule="evenodd" fill="#FFFFFF" d="M129,4H81v32h48V4z M70,53v49h69V53H70z"/>
	</g>
</g>
<g id="Rectangle_1_copy">
	<g>
		<rect x="70" y="4" fill="#EFC469" width="9" height="32"/>
	</g>
</g>
<g id="Outline">
	<g>
		<path fill-rule="evenodd" clip-rule="evenodd" fill="#64310F" d="M154.973,27.015c0.003-0.175,0.025-0.344,0.025-0.519
			c0-14.634-11.864-26.496-26.5-26.496c-0.168,0-0.33,0.021-0.498,0.025V0.019H62c-4.418,0-8,3.581-8,7.999v89.983
			c0,4.418,3.582,7.999,8,7.999h85c4.418,0,8-3.581,8-7.999V27.015H154.973z M81,4.018h46.766c0.078,0.005,0.156,0.007,0.234,0.007
			c0.027,0,0.055,0,0.082-0.001c0.146-0.003,0.29-0.012,0.435-0.021l0.035-0.003c0.15,0,0.299,0.009,0.448,0.012v27.99
			c0,2.206-1.795,4-4,4h-11h-6H96H85c-2.206,0-4-1.794-4-4V4.018z M70,4.018h7v27.983c0,1.459,0.397,2.822,1.079,4H74
			c-2.206,0-4-1.794-4-4V4.018z M139,102.001H70V56.999c0-2.206,1.794-4,4-4h11h39h11c2.205,0,4,1.794,4,4V102.001z M151,98.001
			c0,2.206-1.794,4-4,4h-4V56.999c0-4.418-3.582-7.999-8-7.999h-11H85H74c-4.418,0-8,3.581-8,7.999v45.002h-4c-2.206,0-4-1.794-4-4
			V8.018c0-2.205,1.794-4,4-4h4v27.983C66,36.419,69.582,40,74,40h11h11h12h6h11c4.418,0,8-3.581,8-7.999V4.453
			c10.241,2.088,17.976,11.153,17.998,21.995l-0.003,0.046c-0.011,0.15-0.02,0.301-0.021,0.453
			c-0.003,0.177,0.006,0.353,0.026,0.525V98.001z M115,32h5c1.656,0,3-1.343,3-3V11c0-1.657-1.344-3-3-3h-5c-1.656,0-3,1.343-3,3v18
			C112,30.657,113.344,32,115,32z"/>
	</g>
</g>
<g id="Face_2_">
	<g id="Face">
		<g>
			<path fill-rule="evenodd" clip-rule="evenodd" fill="#64310F" d="M94.546,72.264c0.385,0.491,0.949,0.746,1.516,0.746
				c0.433,0,0.869-0.148,1.231-0.452c0.836-0.703,0.964-1.975,0.283-2.839c-1.863-2.371-4.624-3.73-7.573-3.73
				c-2.949,0-5.709,1.359-7.573,3.73c-0.68,0.864-0.553,2.136,0.284,2.839c0.836,0.703,2.066,0.572,2.747-0.294
				c1.119-1.423,2.774-2.239,4.542-2.239C91.771,70.024,93.427,70.841,94.546,72.264z M126.576,69.719
				c-1.863-2.371-4.625-3.73-7.574-3.73s-5.709,1.359-7.572,3.73c-0.68,0.864-0.553,2.136,0.283,2.839
				c0.837,0.703,2.066,0.572,2.747-0.294c1.118-1.423,2.774-2.239,4.542-2.239c1.77,0,3.425,0.816,4.544,2.239
				c0.386,0.491,0.948,0.746,1.516,0.746c0.433,0,0.868-0.148,1.231-0.452C127.129,71.854,127.256,70.583,126.576,69.719z
				 M116.988,84.896c-0.003-0.036-0.006-0.069-0.01-0.103c-0.104-1.004-0.856-1.786-1.779-1.786H93.801
				c-0.923,0-1.675,0.782-1.78,1.786c-0.003,0.032-0.007,0.066-0.009,0.103C92.009,84.94,92,84.983,92,85.028
				c0,0.012,0.002,0.022,0.003,0.034C92.001,85.111,92,85.161,92,85.211c0,4.304,5.597,7.793,12.499,7.793
				c6.903,0,12.501-3.489,12.501-7.793c0-0.05-0.002-0.1-0.003-0.148c0-0.012,0.003-0.022,0.003-0.034
				C117,84.983,116.99,84.94,116.988,84.896z"/>
		</g>
	</g>
	<g id="Tongue">
		<g>
			<ellipse fill="#FF4E8F" cx="104.5" cy="89" rx="4.5" ry="2"/>
		</g>
	</g>
	<g id="Cheeks">
		<g>
			<path fill-rule="evenodd" clip-rule="evenodd" fill="#CF6A6A" d="M126.487,81.005c-1.381,0-2.501,1.119-2.501,2.5
				s1.12,2.5,2.501,2.5c1.38,0,2.5-1.119,2.5-2.5S127.867,81.005,126.487,81.005z M82.487,81.005c-1.381,0-2.5,1.119-2.5,2.5
				s1.119,2.5,2.5,2.5c1.38,0,2.5-1.119,2.5-2.5S83.868,81.005,82.487,81.005z"/>
		</g>
	</g>
</g>
<g id="Stars_1_">
	<g id="Rounded_Rectangle_2_copy_2">
		<g>
			<path fill-rule="evenodd" clip-rule="evenodd" fill="#95D048" d="M199,28c-1.104,0-2,0.896-2,2v3c0,1.104,0.896,2,2,2
				s2-0.896,2-2v-3C201,28.896,200.104,28,199,28z M199,41c-1.104,0-2,0.896-2,2v3c0,1.104,0.896,2,2,2s2-0.896,2-2v-3
				C201,41.896,200.104,41,199,41z M207,36h-3c-1.104,0-2,0.896-2,2s0.896,2,2,2h3c1.104,0,2-0.896,2-2S208.104,36,207,36z M194,36
				h-3c-1.104,0-2,0.896-2,2s0.896,2,2,2h3c1.104,0,2-0.896,2-2S195.104,36,194,36z"/>
		</g>
	</g>
	<g id="Rounded_Rectangle_2_copy_3">
		<g>
			<path fill-rule="evenodd" clip-rule="evenodd" fill="#F76B7E" d="M12.95,61.879l2.122-2.121c0.781-0.781,0.781-2.048,0-2.829
				c-0.781-0.781-2.048-0.781-2.829,0l-2.122,2.121c-0.781,0.781-0.781,2.048,0,2.829C10.902,62.66,12.168,62.66,12.95,61.879z
				 M3.05,66.121l-2.122,2.121c-0.781,0.781-0.781,2.048,0,2.829c0.781,0.781,2.047,0.781,2.829,0l2.121-2.122
				c0.781-0.78,0.781-2.047,0-2.828C5.098,65.34,3.831,65.34,3.05,66.121z M12.95,66.121c-0.781-0.781-2.047-0.781-2.829,0
				c-0.781,0.781-0.781,2.048,0,2.828l2.122,2.122c0.781,0.781,2.047,0.781,2.829,0c0.781-0.781,0.781-2.048,0-2.829L12.95,66.121z
				 M3.757,56.929c-0.781-0.781-2.047-0.781-2.829,0c-0.781,0.781-0.781,2.048,0,2.829l2.122,2.121c0.781,0.781,2.047,0.781,2.828,0
				c0.781-0.781,0.781-2.048,0-2.829L3.757,56.929z"/>
		</g>
	</g>
	<g id="Ellipse_2">
		<g>
			<circle fill="#8BD7F3" cx="32.5" cy="23.5" r="3.5"/>
		</g>
	</g>
	<g id="Ellipse_2_copy_3">
		<g>
			<circle fill="#D3DADC" cx="171" cy="21" r="2"/>
		</g>
	</g>
	<g id="Ellipse_2_copy_4">
		<g>
			<circle fill="#D3DADC" cx="39" cy="79" r="2"/>
		</g>
	</g>
	<g id="Ellipse_2_copy_2">
		<g>
			<path fill="#FFDA8C" d="M182.5,75c-3.59,0-6.5,2.91-6.5,6.5s2.91,6.5,6.5,6.5s6.5-2.91,6.5-6.5S186.09,75,182.5,75z M182.5,84
				c-1.381,0-2.5-1.119-2.5-2.5s1.119-2.5,2.5-2.5s2.5,1.119,2.5,2.5S183.881,84,182.5,84z"/>
		</g>
	</g>
</g>
</svg>
